<svg xmlns="http://www.w3.org/2000/svg" pointer-events="none" class="leaflet-zoom-animated" width="1192" height="644" viewBox="-99 -54 1192 644" style="transform: translate3d(-99px, -54px, 0px);"><g><path class="leaflet-interactive" stroke="black" stroke-opacity="1" stroke-width="1" stroke-linecap="round" stroke-linejoin="round" fill="#fff" fill-opacity="0.2" fill-rule="evenodd" d="M386 346L387 353L385 356L387 359L387 363L385 364L385 371L389 374L388 377L392 375L394 379L397 380L398 384L395 385L400 386L403 390L403 392L401 393L401 398L403 397L406 401L409 402L412 408L416 408L415 410L413 410L416 411L421 420L423 420L426 417L431 419L438 425L441 425L441 427L447 426L449 431L453 429L457 435L460 437L459 434L463 435L471 441L474 437L479 439L479 437L484 437L485 435L498 439L505 435L507 437L514 437L513 435L516 433L524 437L525 433L528 433L536 440L535 441L537 443L540 443L542 445L548 440L550 440L550 442L550 440L552 439L551 438L552 439L558 433L562 434L562 437L564 437L564 444L562 445L562 447L565 451L563 453L564 455L562 457L561 456L562 460L565 463L563 465L564 467L567 468L566 471L568 472L569 477L572 477L574 474L576 476L575 479L578 484L582 483L587 479L587 477L588 478L590 476L593 478L594 477L597 483L606 486L612 483L613 485L615 483L617 488L614 492L615 499L617 497L620 497L622 500L624 500L623 501L627 501L632 506L639 506L641 504L642 505L644 501L649 503L652 495L658 500L656 507L657 509L659 509L660 512L666 511L668 509L667 503L671 500L670 498L674 495L674 492L677 488L679 488L686 482L690 483L692 481L697 483L702 480L701 470L703 464L702 461L704 459L704 453L702 451L699 430L700 429L699 427L697 427L702 422L700 422L694 430L693 428L687 428L688 429L686 430L687 431L685 434L683 435L682 433L679 435L680 434L671 425L671 423L662 423L662 421L658 421L655 419L657 415L656 416L656 414L655 413L655 415L654 413L655 405L657 405L655 403L656 400L654 400L652 397L645 396L645 394L640 394L636 391L636 387L639 387L636 382L639 377L642 379L642 381L647 383L653 383L657 379L662 379L662 375L665 369L664 367L666 365L665 361L663 361L663 355L665 355L666 351L665 350L668 350L673 345L678 346L684 344L681 335L682 334L679 330L680 328L683 328L684 322L678 321L680 319L679 318L681 311L685 309L685 307L693 306L698 312L700 309L702 311L705 311L707 314L706 320L707 319L710 321L710 326L714 329L714 331L716 331L717 334L724 333L729 329L733 329L734 327L735 328L735 324L741 321L742 322L744 319L748 321L749 315L741 302L744 299L742 293L745 291L740 289L737 291L731 291L730 287L725 283L721 282L718 276L720 272L720 267L717 269L713 264L710 266L708 264L704 267L697 268L689 265L687 269L683 267L677 267L672 261L672 254L669 247L664 245L659 246L659 242L656 241L657 238L651 234L645 236L638 236L635 232L634 234L632 233L633 230L631 230L635 226L633 220L639 218L638 214L640 214L645 205L649 203L648 201L656 201L665 195L665 190L668 189L668 187L676 176L688 174L688 171L693 166L697 167L700 164L699 161L701 161L702 158L710 158L711 152L712 153L714 147L711 146L707 151L694 154L693 157L688 157L684 161L680 161L673 165L666 172L664 171L667 161L666 158L668 157L668 155L672 154L671 150L674 145L673 141L670 144L669 142L669 144L667 144L667 147L665 148L662 146L658 139L656 138L654 140L652 138L650 139L650 141L647 140L646 146L638 151L636 143L634 143L634 145L629 145L626 142L625 144L624 143L617 145L616 143L610 140L609 141L609 139L602 137L601 134L594 135L593 133L592 135L590 135L587 132L582 133L581 131L583 129L581 129L580 126L577 127L578 130L575 126L576 127L573 130L571 126L568 128L562 126L560 134L557 138L558 137L560 139L558 139L559 140L557 141L560 144L556 145L558 146L557 151L559 153L558 156L555 156L555 165L557 168L554 168L552 170L552 179L554 180L554 184L550 182L549 183L550 185L547 189L547 193L541 193L537 197L534 196L534 200L526 198L526 202L522 208L517 205L514 205L514 210L511 211L510 214L507 215L503 213L499 218L496 218L492 213L490 215L491 216L486 217L477 215L468 217L469 214L465 215L458 212L454 212L455 215L453 219L453 230L447 227L438 228L437 232L436 231L435 233L434 232L429 235L429 238L425 240L422 246L421 245L418 247L411 248L407 247L401 250L396 248L393 252L384 257L381 255L378 262L376 262L375 264L372 261L370 261L367 265L346 265L345 268L347 268L344 271L347 279L351 281L352 280L353 284L353 286L349 290L349 293L357 295L357 297L362 299L362 302L359 304L359 309L362 310L365 316L359 320L362 324L364 323L372 329L375 334L374 336L379 341L382 341L386 345zM388 375L386 376zM675 163L676 162L675 163zM564 444L564 442L562 443L562 445L563 443zM497 438L496 438z"/><path class="leaflet-interactive" stroke="#333" stroke-opacity="1" stroke-width="0.5" stroke-linecap="round" stroke-linejoin="round" stroke-dasharray="1,6" fill="#fff" fill-opacity="0" fill-rule="evenodd" d="M593 240L586 237L580 237L576 242L567 243L562 240L558 241L556 239L552 239L549 236L543 237L542 235L538 235L536 238L531 237L527 242L523 243L524 245L518 247L514 244L511 247L508 245L506 246L505 249L502 249L502 251L508 251L510 255L508 258L503 258L503 263L507 269L513 271L511 270L508 275L502 275L500 273L497 274L497 285L502 285L506 289L511 288L520 291L523 291L529 287L529 285L531 286L534 284L535 280L537 280L539 283L540 282L541 285L547 285L550 288L551 287L557 290L565 286L571 286L571 281L573 277L575 276L575 278L579 278L579 275L581 273L585 274L585 268L589 263L589 258L587 255L590 252L586 248L591 247L593 241z"/><path class="leaflet-interactive" stroke="#333" stroke-opacity="1" stroke-width="0.5" stroke-linecap="round" stroke-linejoin="round" stroke-dasharray="1,6" fill="#fff" fill-opacity="0" fill-rule="evenodd" d="M571 286L572 289L573 288L581 293L583 292L586 294L586 296L591 295L596 290L605 293L605 291L607 291L608 289L607 286L611 288L612 287L614 291L622 292L625 294L633 290L636 291L637 290L634 286L634 283L636 282L633 281L633 278L638 274L636 261L639 259L637 257L634 258L634 254L632 254L632 252L635 251L638 254L642 252L650 252L651 250L659 250L660 247L658 244L659 242L656 241L657 238L651 234L645 236L638 236L635 232L634 234L630 233L626 237L629 240L626 243L622 241L613 242L605 239L601 241L593 240L591 247L586 248L590 252L587 255L589 257L589 265L588 264L585 268L585 273L581 273L579 275L579 278L575 278L575 276L572 277L571 285z"/><path class="leaflet-interactive" stroke="#333" stroke-opacity="1" stroke-width="0.5" stroke-linecap="round" stroke-linejoin="round" stroke-dasharray="1,6" fill="#fff" fill-opacity="0.2" fill-rule="evenodd" d="M402 328L417 333L422 332L430 337L432 336L438 339L439 342L444 345L451 344L452 341L455 343L456 342L454 339L457 338L461 333L461 335L466 334L468 328L467 327L473 324L476 327L478 327L485 320L482 319L485 314L484 310L487 309L490 301L485 290L489 286L492 285L492 287L500 285L497 285L496 282L498 278L497 274L499 273L502 275L508 275L511 270L513 271L511 269L506 268L503 263L503 259L505 257L507 258L510 255L508 254L508 252L502 251L502 247L496 247L491 245L491 240L488 240L486 237L485 239L483 238L482 240L483 239L484 242L482 242L480 240L475 240L468 237L466 238L457 231L453 232L451 229L448 228L446 231L449 235L447 235L449 236L442 241L443 243L449 245L449 247L451 248L452 251L450 253L451 255L448 260L449 261L445 265L441 261L439 261L431 266L429 269L430 270L422 268L410 275L405 274L403 275L403 277L400 276L398 281L396 281L394 284L398 288L396 295L409 305L407 308L408 313L404 318L400 318L401 319L399 321L402 326zM452 251L451 251z"/><path class="leaflet-interactive" stroke="#333" stroke-opacity="1" stroke-width="0.5" stroke-linecap="round" stroke-linejoin="round" stroke-dasharray="1,6" fill="#fff" fill-opacity="0" fill-rule="evenodd" d="M552 334L550 331L543 332L538 328L540 328L537 321L541 316L540 309L536 309L536 307L530 303L529 305L524 304L518 290L511 288L504 289L505 287L502 285L493 287L490 286L486 290L487 297L490 301L487 309L484 310L486 312L482 318L485 320L478 327L476 327L474 324L467 327L468 328L466 333L470 335L471 338L476 337L486 344L488 342L492 342L500 346L502 344L505 344L506 342L511 342L511 344L517 347L517 355L526 356L532 362L540 363L540 371L538 375L539 378L554 378L556 375L553 371L558 360L557 356L549 358L545 357L544 355L545 350L549 351L550 344L554 341L551 335z"/><path class="leaflet-interactive" stroke="#333" stroke-opacity="1" stroke-width="0.5" stroke-linecap="round" stroke-linejoin="round" stroke-dasharray="1,6" fill="#fff" fill-opacity="0.2" fill-rule="evenodd" d="M606 196L606 207L604 215L607 218L610 218L610 216L619 210L623 211L623 207L629 207L634 203L640 204L642 201L641 196L639 196L641 191L635 185L638 181L636 173L640 169L639 166L641 164L642 159L642 153L638 151L637 144L634 143L634 145L629 145L626 142L625 144L624 143L617 145L616 143L610 140L609 141L609 139L602 137L601 134L594 135L593 133L592 135L590 135L587 132L582 133L581 131L583 129L581 129L580 126L577 127L578 130L575 126L576 127L573 130L571 126L568 128L562 126L560 134L557 138L558 137L560 139L558 139L559 140L557 141L560 144L556 145L558 146L557 151L559 155L555 156L555 165L557 168L562 169L563 173L566 175L564 180L565 181L574 180L574 178L576 179L583 174L584 170L580 171L581 169L579 166L581 166L584 161L581 159L581 157L583 158L589 151L590 156L593 155L597 157L597 159L598 158L598 161L596 161L593 167L596 173L601 169L615 167L618 170L627 174L625 179L616 185L611 186L611 188L605 192L604 194L606 196z"/><path class="leaflet-interactive" stroke="#333" stroke-opacity="1" stroke-width="0.5" stroke-linecap="round" stroke-linejoin="round" stroke-dasharray="1,6" fill="#fff" fill-opacity="0.2" fill-rule="evenodd" d="M578 178L583 183L583 188L591 193L592 192L597 194L596 197L599 199L601 197L606 196L604 192L608 190L611 187L610 186L614 186L622 182L626 178L627 174L625 172L618 170L616 167L602 169L598 171L596 174L593 167L597 163L596 161L598 161L598 158L597 159L597 157L589 155L589 151L586 153L586 156L583 158L581 157L580 159L584 161L583 164L579 166L581 169L580 170L583 170L583 174L578 177z"/><path class="leaflet-interactive" stroke="#333" stroke-opacity="1" stroke-width="0.5" stroke-linecap="round" stroke-linejoin="round" stroke-dasharray="1,6" fill="#fff" fill-opacity="0" fill-rule="evenodd" d="M640 204L634 203L629 207L623 207L623 211L620 210L615 212L610 218L607 218L604 215L606 207L606 196L601 197L599 199L596 197L597 194L592 192L591 193L584 189L582 187L582 180L578 178L575 178L574 180L565 181L564 180L566 175L563 173L562 169L559 168L554 168L552 170L552 179L554 180L554 184L550 182L550 185L546 192L547 193L541 193L539 195L539 197L542 198L544 201L546 211L548 211L548 221L553 224L556 231L552 239L558 241L564 240L566 243L576 242L580 237L585 237L593 241L600 241L605 239L612 242L628 242L629 240L626 238L630 233L633 232L633 230L631 230L635 226L633 220L639 218L638 214L641 213L644 207L640 205z"/><path class="leaflet-interactive" stroke="#333" stroke-opacity="1" stroke-width="0.5" stroke-linecap="round" stroke-linejoin="round" stroke-dasharray="1,6" fill="#fff" fill-opacity="0.2" fill-rule="evenodd" d="M503 248L504 249L507 245L510 247L513 246L514 244L518 247L524 245L523 243L529 241L531 237L536 238L540 235L542 235L542 237L549 236L552 239L556 231L553 224L551 224L548 221L548 211L546 211L544 201L539 195L537 197L534 196L534 200L526 198L526 202L522 208L517 205L514 205L514 210L511 211L510 214L507 215L503 213L500 216L498 229L492 235L486 237L488 240L490 240L491 245L496 247L502 247z"/><path class="leaflet-interactive" stroke="#333" stroke-opacity="1" stroke-width="0.5" stroke-linecap="round" stroke-linejoin="round" stroke-dasharray="1,6" fill="#fff" fill-opacity="0.2" fill-rule="evenodd" d="M644 207L646 204L649 203L648 201L656 201L665 195L665 190L668 189L668 187L676 176L688 174L688 171L693 166L697 167L700 164L699 161L701 161L702 158L710 158L711 152L712 153L714 147L711 146L707 151L694 154L693 157L688 157L684 161L680 161L673 165L666 172L664 171L667 161L666 158L668 157L668 155L672 154L671 150L674 145L673 141L670 144L669 142L669 144L667 144L667 147L665 148L656 138L654 140L652 138L650 139L650 141L647 140L646 146L638 151L642 153L642 158L639 171L636 174L638 181L635 184L637 188L640 188L641 191L639 195L641 198L640 199L642 200L640 204L641 206zM675 163L676 162L675 163z"/><path class="leaflet-interactive" stroke="#333" stroke-opacity="1" stroke-width="0.5" stroke-linecap="round" stroke-linejoin="round" stroke-dasharray="1,6" fill="#fff" fill-opacity="0" fill-rule="evenodd" d="M595 292L587 296L584 292L579 293L579 291L578 292L576 289L572 289L571 286L562 287L559 290L557 290L552 287L550 288L545 285L544 286L540 284L540 282L539 283L535 280L535 282L531 286L529 285L529 287L524 291L519 291L519 295L521 296L524 303L529 305L531 303L536 307L536 310L539 309L541 316L537 321L540 328L538 328L546 332L551 331L553 336L560 336L560 334L561 335L563 333L561 331L563 328L563 325L561 325L561 323L567 320L567 322L569 322L569 317L577 313L580 313L582 314L582 316L587 318L586 322L591 328L597 330L599 329L599 313L595 304L597 302L596 293zM567 321L567 321z"/><path class="leaflet-interactive" stroke="#333" stroke-opacity="1" stroke-width="0.5" stroke-linecap="round" stroke-linejoin="round" stroke-dasharray="1,6" fill="#fff" fill-opacity="0" fill-rule="evenodd" d="M558 358L560 356L566 356L570 352L576 353L581 348L591 356L592 354L597 353L598 346L596 345L595 336L586 339L584 334L589 326L586 322L587 318L585 318L581 313L569 317L569 322L564 321L561 324L563 325L563 330L561 331L563 333L561 335L560 334L560 336L553 336L553 334L551 335L552 339L555 341L550 344L549 351L545 351L544 357L558 357z"/><path class="leaflet-interactive" stroke="#333" stroke-opacity="1" stroke-width="0.5" stroke-linecap="round" stroke-linejoin="round" stroke-dasharray="1,6" fill="#fff" fill-opacity="0.2" fill-rule="evenodd" d="M448 228L438 228L437 232L436 231L435 233L434 232L429 235L429 238L425 240L422 246L421 245L418 247L411 248L407 247L401 250L396 248L393 252L384 257L381 255L378 262L376 262L375 264L372 261L370 261L367 265L346 265L345 268L347 268L344 271L347 279L351 281L352 280L353 284L353 286L349 290L349 293L357 295L357 297L362 299L362 302L359 304L359 309L362 310L365 316L359 320L362 324L364 323L372 329L375 334L374 336L379 341L382 341L387 347L393 344L395 340L394 337L397 336L399 329L401 327L402 328L399 320L401 320L401 317L404 318L408 314L407 309L409 303L405 302L396 295L398 292L398 288L395 282L398 281L400 276L403 277L404 274L410 275L417 271L418 269L420 270L424 268L429 270L429 267L439 261L441 261L445 265L446 264L452 251L449 245L442 242L444 239L449 237L447 236L449 233L446 231L447 229zM452 251L452 251z"/><path class="leaflet-interactive" stroke="#333" stroke-opacity="1" stroke-width="0.5" stroke-linecap="round" stroke-linejoin="round" stroke-dasharray="1,6" fill="#fff" fill-opacity="0.2" fill-rule="evenodd" d="M386 346L387 353L385 356L387 359L387 363L385 364L385 371L389 374L388 377L392 375L394 379L397 380L398 384L395 385L400 386L403 390L403 392L401 393L401 398L403 397L406 401L409 402L412 408L416 408L415 410L413 410L416 411L421 420L423 420L426 417L431 419L438 425L441 425L441 427L447 426L449 431L453 429L457 435L460 437L459 434L463 435L471 441L474 437L479 439L479 437L484 437L485 435L498 439L505 435L507 437L514 437L513 435L516 433L524 437L525 433L528 433L536 440L535 441L537 443L540 443L542 445L548 440L550 440L550 442L550 440L552 439L551 438L552 439L558 433L559 434L561 430L563 430L563 424L566 418L559 412L557 413L556 411L554 412L554 415L552 415L553 416L549 421L548 420L544 422L541 419L538 422L532 420L528 422L527 421L526 416L528 414L530 414L531 416L532 415L527 411L525 401L528 395L520 393L522 388L527 384L534 383L539 380L538 375L540 371L540 364L530 361L526 356L517 355L517 347L511 342L507 342L504 345L498 345L492 342L489 343L488 341L486 344L484 344L477 337L471 338L468 334L461 334L455 339L455 343L452 341L451 344L445 345L440 343L438 339L432 336L430 337L425 333L417 333L411 330L403 329L401 327L396 337L394 337L395 340L392 345L387 347zM388 375L386 376zM497 438L496 438z"/><path class="leaflet-interactive" stroke="#333" stroke-opacity="1" stroke-width="0.5" stroke-linecap="round" stroke-linejoin="round" stroke-dasharray="1,6" fill="#fff" fill-opacity="0.2" fill-rule="evenodd" d="M685 307L693 306L698 312L700 309L702 311L705 311L707 314L706 320L707 319L710 321L710 326L714 329L714 331L716 331L717 334L724 333L729 329L733 329L734 327L735 328L735 324L741 321L742 322L744 319L748 321L749 320L749 315L741 302L744 299L742 293L745 291L740 289L737 291L731 291L730 287L725 283L721 282L718 276L720 272L720 267L717 269L713 264L710 266L708 264L704 267L697 268L689 265L687 269L683 267L677 267L672 261L672 254L669 247L664 245L660 245L659 249L654 249L653 251L652 250L650 252L642 252L639 254L635 251L632 252L632 254L634 254L634 258L639 258L638 260L636 260L638 273L635 277L634 276L633 281L636 282L634 286L640 292L642 291L650 296L652 300L650 307L652 308L651 310L648 310L646 316L654 316L656 314L655 313L658 314L661 310L662 312L665 310L671 313L678 309L678 306L684 305z"/><path class="leaflet-interactive" stroke="#333" stroke-opacity="1" stroke-width="0.5" stroke-linecap="round" stroke-linejoin="round" stroke-dasharray="1,6" fill="#fff" fill-opacity="0" fill-rule="evenodd" d="M562 445L565 451L563 453L564 455L562 457L561 456L561 458L565 463L563 465L564 467L567 468L566 471L568 472L569 477L572 477L574 474L576 476L575 479L578 484L582 483L587 479L587 477L588 478L590 476L593 478L594 477L597 483L606 486L612 483L613 485L615 483L617 488L614 492L615 499L617 497L620 497L622 500L624 500L623 501L627 501L632 506L639 506L641 504L642 505L644 501L649 503L652 495L658 500L656 507L657 509L659 509L660 512L666 511L668 509L667 503L671 500L670 498L674 495L674 492L677 488L679 488L686 482L690 483L692 481L697 483L702 480L701 470L703 464L702 461L704 459L704 453L702 451L699 430L700 429L699 427L697 427L702 422L700 422L694 430L693 428L687 428L688 429L686 430L687 431L685 434L683 435L682 433L679 435L680 434L671 425L671 423L662 423L662 421L658 421L655 419L652 421L651 419L640 415L637 416L636 418L631 418L629 421L631 422L628 427L625 424L618 427L616 426L615 432L620 436L618 438L619 439L613 444L611 442L606 444L602 443L599 437L597 438L597 434L594 432L594 430L592 432L591 428L589 428L589 430L584 431L582 424L582 426L577 427L573 419L568 418L563 424L563 430L561 430L560 433L562 434L562 437L564 437L563 444zM564 444L564 442L562 443L562 445L563 443z"/><path class="leaflet-interactive" stroke="#333" stroke-opacity="1" stroke-width="0.5" stroke-linecap="round" stroke-linejoin="round" stroke-dasharray="1,6" fill="#fff" fill-opacity="0.2" fill-rule="evenodd" d="M636 382L639 377L642 379L642 381L647 383L653 383L657 379L662 379L662 375L665 369L664 367L666 365L665 361L663 361L663 355L665 355L666 351L665 350L668 350L673 345L678 346L684 344L681 335L682 334L679 330L680 328L683 328L684 322L678 321L680 319L679 318L681 311L685 309L685 307L684 305L678 305L677 310L673 311L672 313L665 310L663 312L662 310L658 314L656 313L654 316L651 315L648 317L646 316L648 310L652 308L652 300L649 295L637 290L633 290L626 294L614 291L612 288L607 286L606 288L608 289L607 291L605 291L605 293L601 293L600 291L597 290L596 292L596 307L599 312L599 329L597 330L591 327L587 327L588 329L585 330L584 334L586 339L595 335L597 343L597 353L607 353L612 357L615 356L616 361L619 363L620 362L623 366L625 366L626 369L622 376L628 381L628 384L633 385L634 383L636 383z"/><path class="leaflet-interactive" stroke="#333" stroke-opacity="1" stroke-width="0.5" stroke-linecap="round" stroke-linejoin="round" stroke-dasharray="1,6" fill="#fff" fill-opacity="0" fill-rule="evenodd" d="M567 420L567 418L573 419L576 427L582 426L582 424L584 431L589 431L589 428L591 428L592 431L595 431L594 432L597 437L601 438L601 441L603 443L610 444L611 442L613 444L619 439L618 438L620 436L615 432L616 426L624 426L624 424L626 426L627 425L628 427L631 423L629 419L636 418L640 415L649 417L652 420L656 419L655 416L656 417L657 415L656 416L656 414L655 413L655 415L654 413L655 405L657 405L655 403L656 400L654 400L652 397L645 396L645 394L640 394L635 390L637 389L636 387L639 387L636 382L634 383L634 385L628 384L628 382L622 376L626 369L623 365L621 365L620 362L619 363L616 361L615 356L610 357L607 353L602 355L598 352L596 354L591 355L588 354L587 351L585 351L586 350L582 348L576 353L570 352L558 358L558 360L555 362L553 371L555 375L554 378L542 377L535 383L526 384L520 393L527 395L525 401L527 411L532 415L531 416L528 413L526 416L528 422L532 420L538 422L540 419L546 422L548 420L549 421L553 416L552 415L554 415L554 411L557 413L559 412L563 416L564 415L566 419z"/><path class="leaflet-interactive" stroke="#333" stroke-opacity="1" stroke-width="0.5" stroke-linecap="round" stroke-linejoin="round" stroke-dasharray="1,6" fill="#fff" fill-opacity="0.2" fill-rule="evenodd" d="M499 218L496 218L492 213L490 215L491 216L486 217L477 215L468 217L469 214L465 215L458 212L454 212L454 228L452 231L460 233L463 237L480 240L484 242L482 238L484 239L489 235L493 235L497 231L499 219z"/></g></svg>